<?xml version="1.0" standalone="no"?>
<!DOCTYPE svg PUBLIC "-//W3C//DTD SVG 20010904//EN"
 "http://www.w3.org/TR/2001/REC-SVG-20010904/DTD/svg10.dtd">
<svg version="1.0" xmlns="http://www.w3.org/2000/svg"
 width="427.000000pt" height="427.000000pt" viewBox="0 0 427.000000 427.000000"
 preserveAspectRatio="xMidYMid meet">
<metadata>
Created by potrace 1.14, written by Peter Selinger 2001-2017
</metadata>
<g transform="translate(0.000000,427.000000) scale(0.100000,-0.100000)"
fill="#000000" stroke="none">
<path d="M2340 4182 c-22 -38 -40 -75 -40 -83 0 -13 -85 -147 -147 -233 -15
-21 -45 -51 -65 -68 l-38 -29 -34 26 -35 26 -26 -40 c-21 -34 -31 -41 -56 -41
-82 0 -245 -64 -304 -120 -35 -33 -167 -80 -225 -80 -32 0 -39 4 -42 23 -3 19
-9 22 -51 22 -26 0 -47 4 -47 9 0 5 -7 18 -16 27 -14 16 -15 25 -5 64 6 26 16
79 21 118 18 141 22 162 37 191 21 40 43 106 36 106 -3 0 -32 -12 -63 -26 -52
-23 -61 -31 -80 -78 -13 -28 -42 -72 -66 -98 -24 -26 -44 -57 -44 -68 0 -12
-11 -45 -23 -73 -13 -29 -32 -86 -42 -127 -24 -101 -53 -164 -78 -176 -16 -6
-22 -20 -24 -49 -2 -22 -12 -65 -23 -95 -10 -30 -21 -72 -25 -92 -3 -21 -21
-55 -41 -79 -49 -59 -87 -127 -80 -144 3 -8 -8 -43 -24 -78 -27 -60 -69 -216
-72 -268 -1 -13 -18 -49 -38 -79 -40 -59 -64 -104 -81 -147 l-10 -27 24 24
c13 14 22 28 20 33 -2 4 1 7 6 7 6 0 10 3 9 8 -2 4 2 7 7 7 6 0 9 -27 6 -69
-5 -92 -19 -123 -227 -485 -36 -62 -78 -114 -158 -193 -107 -107 -108 -109
-101 -146 10 -54 60 -203 94 -275 16 -34 32 -72 35 -84 4 -13 14 -23 21 -23
19 0 28 17 13 22 -19 7 42 162 65 166 9 2 17 -3 17 -10 0 -8 7 -37 15 -65 13
-44 18 -50 36 -46 18 5 20 3 12 -13 -22 -41 -22 -92 -1 -146 15 -39 20 -76 20
-138 0 -94 3 -106 24 -89 11 9 21 4 49 -24 19 -19 35 -33 35 -30 0 3 7 0 14
-7 11 -8 12 -18 6 -34 -14 -37 12 -76 111 -171 84 -81 243 -215 255 -215 2 0
-2 10 -10 23 -41 64 -99 228 -122 344 -13 70 -29 132 -34 138 -5 7 -7 14 -4
17 3 3 0 37 -7 74 -9 50 -14 64 -19 49 -15 -40 -23 34 -16 147 7 110 16 173
35 234 5 18 6 36 3 40 -4 5 5 -4 20 -19 28 -28 36 -43 18 -32 -5 3 -10 2 -10
-4 0 -5 4 -12 9 -16 6 -3 4 -24 -4 -53 -21 -72 -26 -132 -17 -187 l9 -50 21
46 c38 82 47 70 47 -61 0 -103 2 -121 19 -139 11 -12 21 -28 22 -36 4 -24 64
-138 91 -170 13 -17 23 -23 21 -15 -2 8 -8 19 -15 25 -18 15 -41 92 -53 175
-6 41 -13 76 -15 79 -8 7 -5 -50 5 -99 12 -65 4 -62 -16 6 -16 60 -37 97 -28
53 4 -21 3 -22 -4 -4 -19 43 -9 261 13 284 10 9 25 -15 27 -42 2 -18 8 -27 20
-27 10 0 18 4 18 8 0 5 7 9 15 9 21 0 19 -8 -8 -32 -28 -23 -40 -71 -25 -99 6
-11 23 -30 38 -42 27 -24 34 -57 45 -224 3 -43 -27 -217 -56 -328 -19 -71 -20
-85 -8 -93 8 -5 21 -8 29 -8 10 0 11 2 3 6 -18 7 -16 30 2 37 8 3 15 0 15 -6
0 -6 3 -8 7 -4 5 4 0 14 -11 21 -18 14 -18 17 -1 112 9 54 21 102 26 108 5 5
9 22 9 38 0 19 4 26 11 21 8 -5 10 1 7 20 -3 15 -1 26 6 26 6 0 4 5 -4 10 -13
8 -12 10 3 10 9 0 17 6 18 13 0 6 7 -10 14 -38 11 -43 13 -45 14 -19 0 17 4
53 8 80 6 42 8 45 14 24 6 -23 7 -22 8 9 1 28 3 32 16 21 8 -6 25 -31 38 -54
21 -37 25 -62 31 -185 4 -78 11 -152 17 -164 9 -21 9 -21 5 3 -3 14 -8 85 -12
157 l-7 133 29 0 c16 0 36 -5 44 -11 13 -9 12 -10 -3 -5 -16 5 -18 -2 -17 -87
0 -50 -2 -105 -6 -122 -4 -25 0 -21 27 23 l32 54 28 -54 c32 -60 90 -117 148
-145 34 -17 37 -21 21 -30 -9 -6 -20 -24 -23 -40 -3 -15 -30 -52 -60 -83 -46
-46 -54 -60 -50 -83 5 -24 15 -30 99 -57 52 -16 97 -30 100 -30 3 0 19 15 35
33 23 24 32 29 38 19 6 -9 12 1 20 32 14 55 14 79 1 71 -6 -4 -8 5 -4 22 3 15
6 37 8 47 2 11 9 22 17 24 12 3 12 2 0 -6 -10 -7 -10 -11 -1 -17 6 -4 10 -18
8 -33 -5 -40 17 -36 30 5 10 36 11 35 6 -20 -3 -32 -14 -77 -25 -100 -10 -23
-19 -50 -19 -59 0 -9 -8 -21 -17 -27 -14 -7 -10 -11 22 -20 92 -24 240 -42
395 -48 494 -17 970 137 1375 446 81 62 290 270 357 356 67 86 156 214 191
277 l27 47 -37 6 c-21 3 -87 14 -146 26 -60 11 -134 23 -165 25 -31 3 -74 10
-96 15 -35 10 -41 8 -66 -16 l-28 -27 -17 31 -16 32 -29 -21 -30 -21 0 75 c0
76 -8 101 -44 143 l-19 22 29 -8 c57 -17 82 -30 104 -53 l22 -23 -5 37 c-3 20
-25 74 -49 120 -42 79 -49 115 -25 130 14 9 46 -34 59 -80 12 -43 38 -85 38
-61 0 8 -5 20 -12 27 -9 9 -7 12 9 12 61 0 208 120 282 230 52 78 53 80 43 80
-5 0 -30 -27 -55 -60 -47 -61 -67 -73 -67 -44 0 12 -6 15 -22 10 -13 -4 -46
-13 -74 -20 -29 -8 -66 -22 -83 -31 -18 -9 -49 -15 -69 -13 -34 3 -37 6 -37
33 l0 30 105 6 c72 4 120 12 154 26 l50 20 -95 -1 c-134 -1 -201 22 -201 68 0
15 -6 26 -14 26 -8 0 -14 -6 -14 -12 0 -9 -3 -8 -9 2 -6 8 -7 18 -4 23 3 5 0
7 -8 5 -14 -5 -79 80 -79 102 0 5 -10 20 -22 32 -13 13 -28 47 -35 78 -32 143
-44 216 -40 237 2 13 -1 27 -8 33 -7 6 -10 22 -8 38 4 21 2 24 -6 12 -9 -13
-11 -13 -11 2 0 9 5 20 10 23 6 4 7 12 3 18 -4 6 -8 18 -9 27 -1 8 -5 24 -9
35 -5 14 -5 17 2 10 6 -5 18 -34 28 -62 9 -29 20 -55 25 -58 5 -3 7 -14 5 -25
-2 -12 0 -18 4 -16 4 3 25 -16 46 -42 21 -26 32 -41 25 -34 -25 22 -32 13 -13
-18 9 -16 21 -30 25 -30 18 0 5 -36 -19 -54 -14 -11 -23 -14 -19 -8 3 6 2 13
-4 17 -6 4 -8 11 -5 16 4 5 1 9 -4 9 -16 0 -14 -23 12 -108 17 -60 31 -85 65
-120 42 -43 45 -44 90 -39 26 3 58 9 71 13 20 6 23 4 18 -9 -8 -21 -4 -21 33
-2 30 15 54 48 44 58 -3 3 -20 -3 -37 -14 -54 -32 -59 -21 -11 23 47 44 99
108 73 93 -24 -16 -56 -16 -69 0 -10 12 -10 15 1 15 8 1 3 7 -10 14 -24 13
-24 14 19 21 46 8 38 25 -12 25 -36 0 -40 9 -28 70 5 29 6 59 2 67 -6 9 -9 -4
-11 -38 -2 -77 -17 -81 -24 -7 -3 35 -9 74 -12 88 -3 14 -10 45 -14 70 l-9 45
-1 -47 c0 -26 2 -49 7 -51 10 -7 15 -127 5 -126 -4 0 -44 73 -88 162 -44 88
-86 163 -92 165 -14 4 -4 -25 49 -138 49 -107 56 -124 61 -154 5 -29 4 -29
-34 14 -21 23 -36 47 -33 51 3 5 1 9 -4 9 -6 0 -13 11 -16 25 -4 14 -11 25
-16 25 -18 0 -51 87 -59 156 -4 38 -12 78 -16 89 l-8 20 17 -20 c17 -20 17
-20 10 5 -4 14 -17 45 -29 70 -12 25 -28 62 -34 82 -7 20 -32 74 -57 120 -25
46 -46 88 -47 93 -1 6 -5 12 -8 15 -15 11 -77 125 -72 132 2 5 9 8 15 8 6 0 9
-2 6 -5 -3 -3 11 -22 31 -43 46 -50 81 -114 64 -119 -8 -3 0 -16 19 -35 17
-16 32 -37 33 -47 1 -9 7 -29 14 -45 11 -28 13 -29 29 -12 12 14 14 20 5 23
-7 3 -13 13 -13 24 0 10 -4 19 -10 19 -5 0 -9 3 -8 8 1 4 -4 18 -12 32 -24 45
12 7 55 -57 45 -66 105 -132 105 -115 0 12 -19 51 -30 62 -3 3 -6 12 -8 20 -4
24 33 -28 85 -118 81 -140 93 -157 93 -142 0 8 -24 59 -53 113 -121 227 -271
397 -490 557 -81 59 -98 82 -22 30 26 -18 48 -30 50 -28 6 6 -82 72 -123 93
-41 20 -54 13 -18 -10 33 -22 33 -27 -5 -49 l-31 -18 -52 49 c-28 27 -65 61
-83 75 -25 21 -30 28 -19 37 9 8 18 7 32 -4 28 -21 36 -18 19 8 -14 21 -14 27
1 55 8 17 19 34 25 37 5 4 -5 24 -23 46 -39 48 -53 46 -123 -21 l-50 -49 -35
19 c-19 11 -47 19 -62 20 -45 0 -45 32 1 123 44 88 49 107 27 107 -9 0 0 25
27 78 23 42 65 125 94 184 59 122 65 108 -51 128 -109 19 -110 18 -156 -58z
m-450 -481 c0 -14 -29 -21 -36 -9 -4 6 -3 8 4 4 6 -3 13 -2 17 4 8 12 15 13
15 1z m-6 -58 c-7 -29 -27 -77 -43 -103 -5 -8 -15 -29 -21 -47 -7 -18 -17 -30
-24 -27 -7 3 -42 8 -77 12 -55 6 -64 10 -64 27 0 24 90 87 149 105 27 8 35 14
26 20 -7 4 -25 4 -40 0 -15 -4 -34 -4 -41 1 -12 7 -11 9 1 10 8 1 23 1 33 0 9
-1 17 3 17 10 0 8 4 8 13 1 14 -12 57 -5 57 9 0 5 5 9 10 9 6 0 8 -11 4 -27z
m-154 -27 c0 -2 -7 -7 -16 -10 -8 -3 -12 -2 -9 4 6 10 25 14 25 6z m693 -28
c23 -13 44 -24 46 -25 2 -2 -9 -13 -25 -25 -57 -45 -142 -129 -165 -163 -24
-35 -39 -44 -39 -24 0 5 24 51 53 102 29 51 59 107 66 125 7 17 15 32 18 32 2
0 23 -10 46 -22z m-978 -98 c11 -5 15 -9 8 -9 -7 -1 -10 -7 -7 -15 3 -8 13
-12 24 -9 10 3 30 -2 45 -10 l28 -14 -42 -7 c-40 -6 -41 -8 -41 -44 0 -30 6
-42 31 -62 17 -14 51 -42 76 -62 76 -65 155 -46 139 33 -3 16 -3 29 0 29 2 0
31 -13 64 -30 70 -35 71 -35 63 -12 -9 23 20 -3 187 -165 74 -72 164 -151 200
-175 36 -25 92 -63 125 -85 68 -46 112 -69 121 -61 10 10 -37 132 -89 231
l-52 98 39 72 c21 40 50 84 65 98 14 15 51 58 81 98 30 39 61 71 68 71 20 0
55 -21 70 -41 7 -10 32 -32 55 -48 56 -38 182 -169 181 -187 -1 -8 4 -14 12
-14 14 0 43 -26 92 -86 19 -23 30 -31 27 -19 -5 13 -4 16 2 8 14 -20 10 -78
-6 -75 -9 2 -11 -3 -6 -15 8 -19 11 -33 20 -98 l5 -40 -14 30 c-9 17 -15 41
-16 55 -1 52 -60 150 -90 150 -11 0 8 -40 25 -52 6 -4 6 -8 1 -8 -5 0 -3 -7 4
-15 10 -12 10 -15 -2 -15 -8 0 -20 10 -27 23 -11 19 -87 75 -96 70 -2 -1 -26
18 -52 43 -28 26 -55 43 -65 40 -10 -2 -15 1 -12 9 5 12 -64 60 -73 52 -2 -3
-5 -14 -6 -25 0 -12 -6 -18 -14 -15 -7 3 -13 -2 -13 -11 0 -9 -8 -16 -19 -16
-11 0 -23 -5 -26 -11 -11 -16 4 -61 17 -53 7 5 8 3 3 -5 -4 -7 3 -23 16 -38
13 -15 18 -23 11 -19 -11 6 -11 4 -3 -10 6 -11 22 -48 36 -83 24 -57 25 -65
11 -80 -9 -10 -16 -22 -16 -27 0 -5 4 -3 9 5 18 28 117 -111 104 -145 -4 -12
-3 -15 5 -10 8 5 12 0 12 -12 0 -23 23 -45 35 -34 4 4 4 -3 1 -15 -5 -14 -3
-23 3 -23 6 0 10 -3 8 -8 -1 -4 11 -37 27 -74 25 -57 32 -66 44 -55 13 10 14
9 2 -9 -12 -19 -11 -26 8 -55 l21 -33 7 51 c3 29 11 51 17 50 6 -1 11 10 12
24 1 14 5 35 9 45 5 10 9 48 11 84 2 35 7 66 12 67 6 2 17 -35 27 -82 9 -47
21 -94 26 -103 5 -9 20 -42 34 -72 14 -31 34 -65 46 -77 11 -12 21 -32 23 -43
2 -12 8 -25 13 -28 5 -4 9 -17 8 -30 -1 -13 4 -26 11 -28 13 -5 15 -87 2 -100
-4 -5 -5 -1 -1 9 3 9 2 17 -2 17 -9 0 -54 -106 -54 -127 0 -21 -28 -21 -66 -1
-22 11 -41 24 -44 28 -3 4 -47 33 -98 65 -59 37 -135 97 -203 163 -60 57 -109
97 -109 89 0 -26 198 -204 303 -274 56 -36 129 -77 162 -91 53 -22 71 -24 155
-20 52 3 88 3 80 0 -8 -3 -18 -9 -21 -14 -8 -12 -119 -51 -154 -54 -16 -1 -32
-2 -35 -3 -3 -1 -7 -12 -8 -27 -1 -14 -6 -33 -12 -43 -5 -10 -6 -22 -2 -26 4
-5 1 -5 -5 -1 -7 4 -13 2 -13 -3 0 -6 -5 -11 -11 -11 -5 0 -7 5 -4 10 3 5 -1
10 -11 10 -12 0 -14 -4 -7 -12 13 -16 8 -172 -6 -207 -10 -22 -32 -211 -26
-219 1 -1 12 28 25 65 12 38 26 72 31 77 12 13 11 -44 -1 -116 -6 -32 -14 -83
-19 -113 -6 -30 -16 -64 -24 -75 -21 -30 -97 -82 -112 -76 -8 3 -19 -2 -25
-10 -8 -9 -9 -14 -2 -14 6 0 13 5 15 10 3 6 4 5 3 -2 -1 -7 -11 -15 -20 -16
-16 -4 -56 -42 -115 -113 -13 -16 -29 -29 -35 -29 -6 0 -22 -10 -36 -23 -48
-44 -95 -75 -122 -82 -41 -10 -34 8 12 34 48 27 120 125 144 196 44 132 70
315 46 330 -6 4 -10 -18 -11 -57 0 -53 -2 -59 -10 -38 -6 14 -8 48 -5 75 4 35
3 45 -4 34 -5 -9 -11 -30 -12 -48 -1 -17 -5 -31 -9 -31 -3 0 -14 -21 -24 -47
-27 -73 -106 -238 -116 -241 -5 -2 -9 -10 -9 -17 0 -13 -65 -122 -89 -151 -5
-7 -7 -15 -3 -20 4 -4 2 -4 -5 0 -12 7 -50 -28 -117 -108 -21 -25 -47 -46 -58
-46 -11 0 -36 -13 -56 -28 -46 -35 -152 -85 -152 -72 0 9 34 51 88 110 13 14
28 33 34 44 17 32 -8 15 -74 -50 -35 -34 -90 -76 -123 -94 -33 -18 -78 -50
-101 -70 -23 -21 -52 -43 -65 -50 -13 -7 -30 -22 -38 -32 -8 -12 -21 -18 -32
-15 -11 3 -17 2 -14 -3 3 -4 -2 -14 -11 -21 -14 -11 -16 -10 -12 11 2 16 -2
24 -9 22 -7 -1 -13 2 -13 6 0 4 -9 8 -20 9 -11 1 -18 -2 -15 -8 4 -5 1 -9 -4
-9 -6 0 -11 -8 -11 -17 0 -12 -26 8 -77 57 -43 42 -100 87 -126 100 -49 25
-67 51 -82 119 -9 41 14 42 37 2 14 -26 21 -29 53 -26 20 2 39 6 42 9 4 3 12
1 18 -4 8 -7 20 -4 38 10 14 11 32 20 40 20 9 0 19 9 22 21 13 39 -7 44 -117
31 -123 -14 -268 -16 -268 -3 0 5 7 17 16 26 13 12 14 19 4 30 -7 8 -19 15
-26 15 -8 0 -14 5 -14 12 0 6 -3 8 -6 5 -4 -3 -18 3 -32 14 -17 13 -29 16 -35
10 -7 -7 -26 2 -56 27 -97 78 -137 153 -110 204 15 28 81 99 87 94 2 -3 -8
-17 -23 -31 -40 -41 -22 -42 33 -2 42 31 48 40 48 72 0 25 6 40 18 47 16 9 16
10 0 22 -15 12 -13 14 16 19 26 6 38 2 62 -18 16 -14 42 -25 56 -26 54 -1 107
-1 119 0 6 0 10 12 8 26 -2 19 2 25 17 25 29 0 80 -40 74 -56 -4 -10 1 -13 17
-10 75 15 83 15 83 -4 0 -11 -6 -16 -16 -13 -8 3 0 -5 19 -17 30 -19 39 -21
72 -11 46 14 49 14 49 -3 0 -20 32 -30 41 -13 5 8 18 25 29 38 19 21 21 21 15
4 -3 -11 -9 -33 -12 -49 -6 -27 -5 -28 9 -15 9 8 14 16 12 18 -2 2 3 19 11 38
19 45 19 57 0 49 -19 -7 -19 -2 -1 33 8 15 14 37 14 47 -3 31 31 74 58 74 19
0 24 -5 24 -27 0 -22 2 -25 10 -13 17 26 11 48 -12 52 -20 3 -23 8 -20 41 4
41 -2 45 -30 20 -17 -15 -18 -12 -18 80 0 53 -4 98 -9 101 -5 3 -12 17 -15 30
-14 57 -27 81 -35 67 -6 -10 -13 -3 -22 23 l-14 38 -12 -96 c-12 -102 -20
-136 -31 -136 -4 0 -25 29 -47 65 -22 36 -44 65 -49 65 -5 0 -6 3 -3 7 4 3 -7
30 -23 58 -31 54 -38 81 -18 69 6 -4 8 -3 5 3 -4 6 -9 28 -13 49 -3 22 -12 52
-20 68 -10 20 -11 33 -4 40 5 5 10 17 10 25 0 11 -4 10 -20 -4 -21 -19 -27
-45 -10 -45 5 0 7 -7 4 -15 -5 -12 -10 -13 -20 -4 -8 6 -14 17 -14 24 0 6 -11
18 -25 25 -14 7 -32 32 -41 57 -9 23 -22 43 -28 43 -6 0 -5 4 2 9 11 6 10 10
-3 15 -14 5 -16 14 -12 40 6 36 -5 62 -22 52 -6 -4 -11 -3 -11 3 0 5 5 13 10
16 6 4 8 15 5 24 -3 10 1 31 10 47 8 16 15 35 15 42 0 7 12 36 27 65 27 54 41
161 22 172 -5 4 -9 22 -9 41 0 45 -19 52 -69 24 -36 -21 -91 -88 -91 -112 0
-5 -6 -22 -14 -36 -8 -15 -25 -54 -37 -87 -13 -33 -33 -72 -44 -86 -11 -14
-27 -36 -35 -48 -8 -12 -34 -43 -57 -68 -24 -25 -43 -52 -43 -59 0 -8 -6 -14
-12 -15 -7 0 -44 -36 -81 -79 -37 -43 -77 -80 -88 -83 -16 -4 -18 -3 -8 9 6 8
9 23 6 34 -3 11 -2 18 2 15 5 -2 8 8 8 23 -1 15 1 45 2 67 6 79 0 92 -15 36
-8 -30 -12 -63 -8 -74 4 -14 3 -17 -7 -12 -9 6 -11 3 -6 -8 4 -10 2 -29 -3
-43 -8 -19 -7 -23 3 -18 8 6 8 3 -1 -9 -8 -9 -11 -21 -7 -26 14 -24 -53 -111
-86 -111 -10 0 -19 -6 -22 -12 -7 -20 -21 79 -22 151 0 55 -1 59 -8 30 -5 -19
-13 -42 -19 -53 -6 -12 -6 -16 1 -11 6 3 11 1 11 -4 0 -6 -4 -11 -9 -11 -11 0
-35 -114 -28 -139 8 -31 -22 -35 -33 -5 -23 60 -17 157 11 175 5 3 11 15 13
26 2 11 14 37 25 59 12 21 21 44 21 51 0 7 4 13 9 13 18 0 51 68 51 105 0 21
-3 35 -7 32 -3 -4 -11 1 -18 10 -11 15 -15 14 -41 -10 -16 -15 -32 -27 -36
-27 -14 0 24 124 51 163 31 47 64 107 57 107 -2 0 20 47 49 104 36 72 58 131
70 188 9 46 25 102 35 126 10 23 15 42 10 42 -30 0 -106 -139 -164 -302 -15
-42 -36 -84 -47 -94 -19 -17 -19 -17 -3 27 32 88 94 264 94 268 0 2 -7 -2 -16
-10 -13 -11 -14 -9 -8 17 7 29 15 46 59 118 26 44 105 129 113 122 2 -3 17 12
33 34 21 28 40 42 70 50 57 15 77 4 162 -89 26 -28 27 -32 13 -47 -14 -13 -16
-13 -16 -1 0 9 -4 17 -8 19 -4 2 -20 24 -35 51 -26 43 -36 50 -74 46 -5 0 -7
-7 -5 -15 2 -8 -5 -14 -15 -14 -10 0 -27 -7 -37 -15 -18 -14 -17 -15 19 -12
l40 2 6 -45 c3 -25 1 -63 -5 -84 l-12 -40 -21 23 c-21 22 -21 22 -32 3 -6 -11
-26 -27 -45 -36 -35 -16 -76 -84 -76 -126 0 -11 -5 -20 -12 -20 -6 0 -8 -3 -4
-7 4 -5 14 1 22 11 22 30 28 11 7 -24 -47 -84 -60 -115 -50 -122 7 -4 6 -20
-2 -51 -13 -46 -11 -207 3 -207 4 0 9 41 11 90 2 78 7 99 35 155 32 64 51 88
75 91 8 1 11 -5 8 -17 -3 -10 -9 -19 -14 -19 -5 0 -5 7 -2 17 4 11 3 14 -5 9
-7 -4 -12 -16 -12 -27 0 -13 4 -18 12 -13 8 5 9 0 6 -14 -6 -20 0 -26 20 -19
4 1 6 6 4 10 -1 5 2 6 8 2 6 -3 27 7 47 24 21 17 43 31 50 31 7 0 13 7 13 15
0 8 6 15 14 15 15 0 66 62 66 79 0 6 5 11 11 11 6 0 8 -7 5 -16 -7 -18 21
-121 35 -130 17 -10 18 -1 3 56 -8 30 -14 69 -14 86 0 28 3 31 22 26 17 -4 20
-2 15 11 -8 22 6 29 36 18 33 -13 140 -114 191 -179 78 -102 85 -114 96 -170
6 -31 17 -73 25 -92 l14 -35 2 45 c2 51 0 74 -7 110 -3 14 -7 34 -9 45 -2 11
-4 21 -5 23 -2 1 -4 7 -5 12 -1 6 -4 12 -5 15 -1 3 -3 8 -5 13 -1 4 -4 14 -8
22 -3 8 -13 40 -23 70 -9 30 -25 67 -35 81 -10 15 -28 46 -40 70 -68 144 -94
184 -120 187 -14 2 -31 -4 -39 -12 -7 -9 -17 -16 -23 -16 -6 0 -24 -12 -40
-27 l-29 -28 7 25 c12 41 32 74 59 99 14 14 26 29 26 34 0 12 -49 -20 -72 -47
-25 -30 -22 -15 7 35 14 24 25 51 25 60 0 17 26 74 44 97 6 8 27 29 46 48 35
34 58 40 95 24z m-218 -77 c11 -22 10 -31 -2 -50 -9 -13 -22 -23 -30 -23 -8 0
-22 -16 -31 -35 -9 -19 -21 -35 -28 -35 -11 0 -45 19 -36 21 3 0 14 2 25 4 11
2 21 9 24 16 2 6 12 20 22 30 10 10 25 29 34 43 16 24 16 26 1 32 -9 3 -13 10
-10 15 9 15 18 10 31 -18z m1618 -129 c8 -4 22 -19 30 -35 19 -37 0 -30 -33
12 -25 30 -24 33 3 23z m-1675 -225 c0 -20 6 -44 14 -51 11 -12 11 -17 0 -33
-14 -18 -14 -18 -14 1 0 27 -10 36 -25 24 -19 -15 -30 72 -13 99 18 29 38 8
38 -40z m237 -105 c12 -19 21 -34 20 -34 -2 0 -20 18 -41 39 -27 27 -33 38
-20 35 10 -3 29 -21 41 -40z m1446 -52 c24 2 81 -35 91 -61 10 -23 -12 -41
-39 -31 -13 5 -26 6 -29 2 -16 -15 -37 -8 -42 14 -3 13 -9 24 -13 24 -12 0
-33 43 -35 73 l-2 30 22 -27 c15 -16 32 -25 47 -24z m108 26 c18 -23 26 -68
11 -68 -5 0 -16 16 -25 35 -27 57 -20 73 14 33z m222 -215 c9 -29 12 -53 8
-53 -10 0 -45 81 -55 125 -4 17 -9 39 -12 50 -9 40 44 -71 59 -122z m-390 92
c-3 -9 -8 -14 -10 -11 -3 3 -2 9 2 15 9 16 15 13 8 -4z m-2150 -245 c-3 -11
-7 -20 -9 -20 -2 0 -4 9 -4 20 0 11 4 20 9 20 5 0 7 -9 4 -20z m651 -272 c-4
-18 -9 -53 -10 -78 -1 -25 -4 -52 -5 -60 -1 -8 -1 -35 0 -60 2 -35 4 -41 11
-25 8 19 9 19 9 -2 1 -13 -3 -23 -7 -23 -4 0 -8 -10 -9 -21 -3 -30 -11 -36
-65 -43 -32 -5 -48 -4 -48 4 0 6 -11 15 -25 20 l-26 10 35 62 c19 35 58 105
86 156 28 50 53 92 56 92 3 0 2 -15 -2 -32z m2057 15 c13 -16 12 -17 -3 -4
-17 13 -22 21 -14 21 2 0 10 -8 17 -17z m204 -213 c3 -5 -1 -10 -10 -10 -9 0
-13 5 -10 10 3 6 8 10 10 10 2 0 7 -4 10 -10z m-2127 -25 c-3 -3 -9 2 -12 12
-6 14 -5 15 5 6 7 -7 10 -15 7 -18z m-910 -237 c-13 -10 -33 -18 -44 -18 -12
0 -27 -7 -34 -15 -25 -30 -21 -6 10 66 17 41 43 87 58 102 l27 28 3 -72 c3
-66 1 -75 -20 -91z m113 79 c-13 -13 -15 31 -3 60 5 14 8 10 10 -16 2 -18 -1
-38 -7 -44z m719 -86 c0 -79 28 -192 75 -304 6 -14 4 -16 -11 -10 -12 4 -15 3
-10 -5 13 -22 -25 -12 -67 17 -23 15 -52 31 -64 35 -24 8 -72 70 -96 127 -10
21 -16 27 -16 16 -1 -27 29 -169 41 -190 8 -15 7 -18 -4 -15 -7 2 -35 47 -61
99 -38 73 -48 102 -45 131 2 24 -1 39 -9 42 -7 3 -13 15 -13 27 0 17 -3 19
-13 10 -8 -6 -17 -8 -20 -4 -4 3 19 17 51 30 47 19 72 23 142 21 76 -3 85 -5
88 -23 2 -11 8 -24 13 -29 5 -5 6 7 2 27 -4 24 -2 37 6 37 6 0 11 -17 11 -39z
m-350 -41 c0 -5 -2 -10 -4 -10 -3 0 -8 5 -11 10 -3 6 -1 10 4 10 6 0 11 -4 11
-10z m490 -66 c19 -31 59 -78 88 -105 l54 -49 -40 0 c-21 0 -42 3 -46 7 -3 4
-29 6 -56 4 -46 -2 -51 0 -60 24 -11 29 -13 117 -4 153 10 35 26 26 64 -34z
m-526 23 c14 -22 -4 -52 -29 -52 -25 0 -31 22 -8 28 14 4 13 5 -4 6 -28 1 -29
9 -5 27 20 16 32 14 46 -9z m101 -98 c4 -23 4 -23 -10 -5 -8 10 -12 23 -9 28
8 13 14 5 19 -23z m-320 -19 c8 -16 15 -38 15 -49 0 -11 7 -32 15 -48 8 -15
24 -50 35 -78 11 -27 27 -63 35 -78 8 -16 15 -38 15 -49 0 -19 -1 -19 -29 4
-17 13 -34 40 -40 63 -52 190 -70 246 -71 225 l-1 -25 -10 23 c-18 47 12 58
36 12z m-131 -78 c16 -37 40 -84 53 -105 l24 -39 -16 -121 c-9 -67 -18 -137
-21 -155 l-5 -34 -53 77 c-29 42 -79 105 -112 140 -87 93 -123 147 -117 178 4
21 23 35 107 76 55 28 103 50 106 50 3 0 18 -30 34 -67z m92 -14 c7 -16 9 -30
3 -34 -5 -3 -9 0 -9 6 0 6 -7 18 -16 27 -8 9 -13 22 -10 29 3 8 1 14 -4 14 -5
0 -6 8 -3 17 6 14 8 13 16 -8 6 -13 16 -36 23 -51z m-6 -68 c6 -11 8 -20 6
-20 -3 0 -10 9 -16 20 -6 11 -8 20 -6 20 3 0 10 -9 16 -20z m1064 -15 c-4 -16
-2 -25 5 -25 8 0 6 -10 -4 -30 -16 -31 -31 -38 -37 -18 -3 9 -12 9 -37 -1 -18
-8 -30 -19 -27 -26 3 -8 -2 -11 -15 -8 -23 6 -24 16 -5 33 21 16 9 39 -17 34
-22 -5 -22 -4 1 5 12 6 22 15 22 21 0 7 8 9 19 5 11 -3 33 3 53 15 43 26 50
25 42 -5z m-480 -22 c4 -9 -4 -7 -24 7 -17 12 -30 23 -30 25 0 10 49 -19 54
-32z m271 -60 c2 -7 11 -13 19 -13 9 0 13 -6 10 -14 -4 -10 -18 -12 -52 -8
-53 5 -65 12 -57 34 7 18 73 19 80 1z m-988 -205 c-3 -10 -1 -16 3 -13 9 6 55
-53 48 -61 -3 -2 -11 7 -18 21 -7 14 -18 25 -25 25 -27 0 -87 82 -113 155 -1
6 22 -17 53 -50 37 -39 55 -66 52 -77z m-87 -8 c-22 -14 -50 -12 -50 4 0 7 -3
29 -6 47 l-6 34 38 -38 c32 -31 36 -39 24 -47z m45 -76 c18 -12 22 -20 15 -32
-5 -10 -11 -25 -14 -35 -4 -12 -14 -17 -28 -15 -24 3 -27 17 -12 53 7 18 6 18
-9 6 -14 -11 -17 -11 -17 1 0 15 19 38 32 38 5 0 20 -7 33 -16z m96 -34 c21
-17 21 -19 4 -13 -23 8 -51 33 -37 33 5 0 20 -9 33 -20z m55 -58 c-4 -3 -14 2
-24 12 -16 18 -16 18 6 6 13 -6 21 -14 18 -18z m-108 -30 c2 -7 -3 -12 -12
-12 -9 0 -16 7 -16 16 0 17 22 14 28 -4z m132 3 c7 -9 8 -15 2 -15 -5 0 -12 7
-16 15 -3 8 -4 15 -2 15 2 0 9 -7 16 -15z m-220 -79 c0 -5 -7 -3 -15 4 -8 7
-15 20 -15 28 0 13 3 12 15 -4 8 -10 15 -23 15 -28z m192 -44 c9 -16 20 -26
31 -24 26 4 22 -44 -4 -58 -51 -28 -98 25 -85 95 6 31 9 34 26 25 10 -6 25
-22 32 -38z m42 -157 c26 -27 30 -37 21 -45 -9 -7 -15 -8 -19 -1 -4 6 -12 8
-19 6 -15 -6 -38 41 -30 61 7 20 10 18 47 -21z m560 -60 c-11 -61 -24 -49 -24
22 1 66 1 67 16 40 10 -18 13 -39 8 -62z m401 -183 c-8 -9 -42 10 -42 22 0 12
5 11 23 -2 12 -9 21 -19 19 -20z m-80 -263 c-4 -5 4 -9 17 -10 22 0 22 -1 3
-9 -31 -13 -35 -12 -35 16 0 14 4 23 10 19 6 -4 8 -11 5 -16z"/>
<path d="M2465 3108 c15 -50 44 -108 54 -108 14 0 14 47 1 55 -5 3 -10 15 -10
25 0 20 -25 50 -41 50 -6 0 -7 -10 -4 -22z"/>
<path d="M1826 3008 c-3 -18 -8 -72 -12 -120 -6 -85 -6 -88 14 -88 12 0 26 -8
32 -17 9 -15 10 -14 4 7 -4 13 -13 30 -20 38 -8 7 -12 18 -9 22 7 11 35 1 35
-12 0 -5 4 -7 9 -4 9 6 41 -63 41 -89 0 -8 6 -12 14 -9 16 6 12 28 -9 54 -22
26 -28 62 -14 71 10 6 11 9 2 9 -7 0 -13 5 -13 10 0 6 8 10 19 10 15 0 18 8
18 40 0 25 -4 37 -10 33 -6 -4 -8 0 -4 11 9 22 -17 63 -28 45 -6 -8 -10 -7
-17 5 -16 29 -45 19 -52 -16z m64 -84 c0 -8 5 -14 11 -14 5 0 7 -4 4 -10 -9
-15 -25 -12 -25 6 0 9 -5 12 -12 8 -10 -6 -10 -5 -1 8 7 8 9 19 5 23 -4 5 -1
5 6 1 6 -4 12 -14 12 -22z"/>
<path d="M2532 2941 c-10 -6 -10 -24 4 -94 17 -84 18 -87 45 -87 39 0 46 -19
10 -26 -17 -4 -31 -12 -31 -20 0 -25 20 -64 33 -64 8 0 20 -11 27 -25 15 -28
101 -111 111 -108 9 3 48 -80 56 -118 8 -40 22 -37 16 4 -14 92 -105 303 -134
312 -10 4 -29 29 -41 57 -65 146 -83 178 -96 169z"/>
<path d="M1256 2903 c11 -43 46 -137 55 -147 17 -18 8 37 -23 137 -13 44 -42
53 -32 10z"/>
<path d="M1940 2836 c0 -2 7 -9 15 -16 13 -11 14 -10 9 4 -5 14 -24 23 -24 12z"/>
<path d="M2225 2790 c4 -14 18 -34 31 -45 53 -46 220 -348 252 -455 32 -110
47 -147 67 -167 21 -22 78 -182 91 -256 3 -21 16 -69 29 -108 l22 -71 7 53 c4
29 12 62 18 73 12 21 12 21 19 -4 4 -14 5 -56 3 -95 l-3 -70 16 55 c31 106 26
216 -8 194 -5 -3 -9 0 -9 6 0 5 -15 32 -33 58 -18 26 -48 74 -66 107 -18 33
-49 76 -67 96 -20 20 -45 64 -58 100 -13 35 -35 95 -50 134 -14 38 -26 71 -26
72 0 2 19 -18 41 -42 23 -25 44 -44 46 -42 9 10 -20 57 -67 107 -28 30 -63 79
-77 108 -27 58 -25 85 3 30 31 -61 99 -147 114 -145 24 4 15 140 -13 197 -19
38 -28 46 -62 54 -22 4 -61 14 -87 21 -51 14 -62 8 -27 -13 12 -7 18 -16 15
-19 -3 -4 -24 8 -45 25 -27 21 -41 28 -44 19 -4 -7 -6 -6 -6 4 -1 9 -8 23 -17
30 -15 12 -16 11 -9 -11z"/>
<path d="M1866 2751 c-3 -5 0 -12 6 -15 9 -3 7 -10 -7 -22 -14 -11 -16 -18 -7
-21 6 -3 12 -9 12 -15 0 -12 26 -38 38 -38 5 0 15 -11 22 -25 15 -28 30 -33
30 -10 0 8 -4 15 -9 15 -8 0 -25 56 -22 73 1 5 -3 6 -8 3 -8 -5 -21 20 -25 48
-2 14 -23 19 -30 7z"/>
<path d="M1806 2727 c3 -8 15 -12 27 -11 33 4 34 5 12 14 -30 13 -45 12 -39
-3z"/>
<path d="M1701 2448 c-5 -13 -14 -40 -21 -61 -11 -35 -38 -83 -89 -157 -17
-23 -17 -26 13 -77 16 -29 34 -49 38 -45 10 10 -7 60 -29 85 -15 16 -15 19 4
40 11 12 27 39 34 60 14 40 48 69 51 45 0 -7 2 -17 2 -23 1 -5 7 -30 13 -55
16 -66 34 -192 28 -198 -3 -3 -5 5 -5 18 0 17 -3 21 -11 13 -7 -7 -2 -31 18
-82 15 -39 30 -71 34 -71 15 0 -4 169 -28 253 -14 49 -22 91 -19 94 6 6 6 5
36 -81 11 -33 20 -67 20 -78 0 -10 3 -18 8 -18 4 0 17 -22 30 -50 24 -52 33
-63 27 -32 -2 9 -9 49 -16 87 -19 108 -105 355 -124 355 -3 0 -9 -10 -14 -22z"/>
<path d="M1950 2454 c0 -13 68 -79 75 -73 2 3 -13 23 -35 44 -22 22 -40 35
-40 29z"/>
<path d="M2348 2375 c-3 -3 -1 -26 3 -53 4 -26 5 -57 2 -69 -3 -15 10 -53 35
-105 62 -127 92 -228 98 -326 3 -48 10 -99 15 -113 10 -25 83 -101 154 -159
26 -21 25 -19 -7 18 -21 23 -39 52 -39 65 -1 12 -3 38 -4 57 -1 19 -5 66 -9
105 -7 64 -7 68 9 55 14 -12 16 -11 11 11 -3 13 -7 47 -10 74 -3 28 -12 69
-21 90 -15 40 -15 39 -10 -45 6 -98 3 -95 -56 60 -18 47 -52 125 -76 173 -23
49 -48 106 -54 128 -11 35 -27 48 -41 34z m192 -643 c0 -15 -2 -15 -10 -2 -13
20 -13 33 0 25 6 -3 10 -14 10 -23z"/>
<path d="M2806 2345 c4 -8 8 -15 10 -15 2 0 4 7 4 15 0 8 -4 15 -10 15 -5 0
-7 -7 -4 -15z"/>
<path d="M1552 2276 c-6 -22 -10 -42 -8 -44 9 -8 27 40 24 61 -3 17 -7 14 -16
-17z"/>
<path d="M2371 2109 c-1 -15 10 -64 24 -110 14 -46 27 -91 30 -99 2 -8 11 -37
19 -65 17 -61 20 -28 5 64 -12 76 -77 250 -78 210z"/>
<path d="M2715 2040 c17 -33 57 -92 78 -115 6 -6 8 2 5 23 -3 17 -4 32 -2 32
1 0 26 -11 55 -25 61 -27 177 -57 183 -46 3 4 -28 15 -67 25 -87 22 -206 78
-243 115 l-27 26 18 -35z"/>
<path d="M1870 1902 c0 -22 5 -44 10 -47 7 -4 8 8 4 37 -9 57 -14 61 -14 10z"/>
<path d="M2941 1878 c16 -31 16 -31 22 -14 4 10 -2 20 -14 27 -19 10 -20 9 -8
-13z"/>
<path d="M2970 1845 c0 -8 6 -15 13 -15 8 0 14 7 14 15 0 8 -6 15 -14 15 -7 0
-13 -7 -13 -15z"/>
<path d="M2208 1756 c-7 -39 -4 -55 8 -44 3 3 4 23 2 44 l-3 39 -7 -39z"/>
<path d="M2327 1723 c-2 -4 -7 -24 -11 -43 l-6 -35 15 39 c13 35 15 61 2 39z"/>
<path d="M2293 1633 c-15 -5 -18 -33 -4 -33 8 0 25 30 19 35 -2 1 -9 0 -15 -2z"/>
<path d="M2752 1610 c0 -14 2 -19 5 -12 2 6 2 18 0 25 -3 6 -5 1 -5 -13z"/>
<path d="M2112 1570 c0 -19 2 -27 5 -17 2 9 2 25 0 35 -3 9 -5 1 -5 -18z"/>
<path d="M2508 1502 c-1 -21 -2 -81 -3 -134 -1 -81 1 -96 13 -89 12 7 107 213
99 216 -1 0 -26 10 -54 22 l-53 21 -2 -36z"/>
<path d="M2066 1514 c-4 -9 -4 -19 -1 -22 2 -3 7 3 11 12 4 9 4 19 1 22 -2 3
-7 -3 -11 -12z"/>
<path d="M2685 1490 c-3 -5 1 -10 10 -10 9 0 13 5 10 10 -3 6 -8 10 -10 10 -2
0 -7 -4 -10 -10z"/>
<path d="M1981 1448 c0 -16 -5 -28 -11 -28 -5 0 -10 -7 -10 -15 0 -22 -55
-129 -76 -146 -16 -13 -17 -10 -11 46 l6 60 -15 -50 c-8 -27 -19 -67 -25 -89
-6 -21 -21 -49 -35 -63 -13 -13 -24 -26 -24 -29 0 -9 55 25 71 44 9 11 21 21
27 23 6 2 36 42 66 89 58 87 71 125 39 113 -16 -6 -16 -5 -5 10 8 9 12 26 9
39 -4 20 -4 20 -6 -4z"/>
<path d="M2181 1390 c-12 -22 -39 -62 -58 -88 -21 -27 -27 -39 -13 -27 31 27
102 134 98 146 -2 6 -14 -8 -27 -31z"/>
<path d="M2090 1340 c-6 -11 -8 -20 -6 -20 3 0 10 9 16 20 6 11 8 20 6 20 -3
0 -10 -9 -16 -20z"/>
<path d="M1805 1300 c-19 -42 -15 -67 5 -31 6 12 15 19 19 17 4 -3 8 8 9 24 1
41 -12 37 -33 -10z"/>
<path d="M2232 1220 c0 -99 2 -108 10 -69 6 29 6 71 0 115 -9 69 -9 69 -10
-46z"/>
<path d="M1016 1157 c-11 -8 -16 -19 -12 -25 4 -8 0 -12 -11 -12 -14 0 -15 -2
-5 -9 10 -6 8 -10 -10 -16 -12 -4 -26 -7 -30 -6 -4 0 -5 -6 -2 -14 9 -21 16
-19 58 18 28 23 37 39 35 55 -4 21 -6 22 -23 9z"/>
<path d="M2261 1108 c0 -9 -7 -23 -14 -30 -19 -18 -48 -108 -36 -108 15 0 61
110 56 134 -3 14 -5 15 -6 4z"/>
<path d="M3340 2741 c0 -5 12 -27 26 -48 14 -21 35 -60 46 -86 11 -26 23 -46
25 -43 2 2 -7 29 -21 60 -14 31 -26 59 -26 62 0 4 -11 19 -25 36 -14 16 -25
25 -25 19z"/>
<path d="M3655 2180 c-10 -11 -13 -20 -8 -20 13 0 38 29 31 35 -3 3 -13 -4
-23 -15z"/>
<path d="M3400 1900 c0 -5 5 -10 11 -10 5 0 7 5 4 10 -3 6 -8 10 -11 10 -2 0
-4 -4 -4 -10z"/>
<path d="M3460 1885 c0 -9 79 -45 97 -44 10 0 -6 11 -36 25 -57 25 -61 27 -61
19z"/>
<path d="M3498 1330 c-4 -14 -8 -34 -8 -45 1 -19 1 -19 11 -2 6 10 9 30 7 45
l-3 27 -7 -25z"/>
<path d="M276 1261 c-23 -25 -20 -31 9 -18 26 12 31 22 16 31 -4 3 -16 -3 -25
-13z"/>
<path d="M310 1232 c0 -12 19 -26 26 -19 2 2 -2 10 -11 17 -9 8 -15 8 -15 2z"/>
<path d="M743 1025 c0 -22 2 -30 4 -17 2 12 2 30 0 40 -3 9 -5 -1 -4 -23z"/>
<path d="M920 871 c0 -5 5 -13 10 -16 6 -3 10 -2 10 4 0 5 -4 13 -10 16 -5 3
-10 2 -10 -4z"/>
<path d="M1087 770 c-3 -11 -1 -20 4 -20 5 0 9 9 9 20 0 11 -2 20 -4 20 -2 0
-6 -9 -9 -20z"/>
<path d="M1082 715 c0 -16 2 -22 5 -12 2 9 2 23 0 30 -3 6 -5 -1 -5 -18z"/>
<path d="M1076 658 c-3 -13 -5 -34 -5 -48 1 -15 5 -7 10 19 9 47 6 68 -5 29z"/>
<path d="M992 620 c0 -14 2 -19 5 -12 2 6 2 18 0 25 -3 6 -5 1 -5 -13z"/>
<path d="M993 560 c-3 -17 -10 -33 -14 -36 -5 -3 -5 -13 1 -23 5 -10 6 -22 2
-27 -4 -5 0 -4 7 3 8 7 15 35 17 63 3 56 -3 66 -13 20z"/>
<path d="M1133 525 c0 -8 4 -15 9 -15 4 0 8 7 8 15 0 8 -4 15 -8 15 -5 0 -9
-7 -9 -15z"/>
<path d="M1140 469 c-1 -8 -3 -39 -6 -69 -4 -37 0 -68 10 -95 l15 -40 -5 60
-5 60 30 -85 c17 -47 31 -86 31 -86 0 -1 6 -4 14 -7 10 -4 5 14 -14 56 -25 57
-45 126 -53 184 -4 26 -17 43 -17 22z"/>
</g>
</svg>
